<svg baseProfile="tiny" xmlns="http://www.w3.org/2000/svg" preserveAspectRatio="xMinYMin meet" viewBox="0 0 1235 120" width="1235" height="120"><g><g><g><g><path fill="#fff" d="M6.6 25.4c-.5.8-1 1.7-1.5 2.8-3 6.5-2.7 9-2.4 9.4h.2c.3 0 1.2-.2 3.4-1.8 1.1-.8 3.2-2.7 4.8-4.1l.3-.3.3.3c3.2 3 7.3 5.3 12.2 6.6l.3.1v.3c0 .3 0 .9.1 1.5h3.6v3.9h-2.4c.5.8 1 2.2 2.8 2.2h7c2 0 2.5-1.2 3.3-2.2h-4.4v-4h7c.2-.6.5-1.3.7-2.1l.1-.2.2-.1C49.1 35.6 54.7 31 56.8 26c-3.7 3.9-13 7.6-24.8 7.6-12.6-.1-22.2-4.1-25.4-8.2zm26.3 18.7h-3.7v-3.9h3.7v3.9z"/></g></g><g><path fill="#fff" d="M6.6 18.4c3.2-4.1 12.9-8.1 25.4-8.1 11.9 0 21.3 3.8 24.9 7.7-2.8-6.9-12.5-13.7-24.7-13.7-7.8 0-15.5 2.9-20.5 7.7l-.3.3-.4-.3C8.7 9.8 7.1 8.5 6.3 7.9 4.1 6.3 3.2 6.1 2.8 6.1h-.2c-.2.4-.5 2.9 2.5 9.4.5 1.1 1 2.1 1.5 2.9z"/></g><g><path fill="#fff" d="M32 11.7c-12.7 0-22.7 4.4-25.1 8.5-.1.3-.1.6-.1.9h50.8C56 16.7 45.3 11.7 32 11.7z"/></g><g><path fill="#fff" d="M6.8 23.5C9.3 27.7 19.4 32 32 32c13.5 0 24-4.8 25.5-9.4H6.7c.1.3.1.7.1.9z"/></g></g></g><g transform="translate(65)"><path opacity=".3" fill="#fff" d="M36.5 73.6l1.5-1.5L4.2 38.3 38 4.4l-1.5-1.5L1.2 38.3z"/></g><g transform="translate(110)"><path fill="#CC2E72" d="M36.5 73.6l1.5-1.5L4.2 38.3 38 4.4l-1.5-1.5L1.2 38.3z"/></g><g transform="translate(155)"><path fill="#fff" d="M15.5 29.5l2.3-.8L4.9 15.8 17.8 2.9l-2.3-.8L1.8 15.8z"/></g><g transform="translate(180)"><path opacity=".3" fill="#fff" d="M2.7 2.9L1.2 4.4l33.9 33.9L1.2 72.1l1.5 1.5 35.4-35.3z"/></g><g transform="translate(225)"><path fill="#CC2E72" d="M2.7 2.9L1.2 4.4l33.9 33.9L1.2 72.1l1.5 1.5 35.4-35.3z"/></g><g transform="translate(270)"><path fill="#fff" d="M4.4 2.1l-2.3.8L15 15.8 2.1 28.7l2.3.8 13.7-13.7z"/></g><g transform="translate(295)"><g><path fill="#fff" d="M24.5 101.5c-4.3 0-7.8-3.8-7.8-8.2L8.4 37.5h118.2l-8 55.9c0 4.5-3.2 8.1-7.3 8.1H24.5z"/><path fill="#222E47" d="M125.9 38L118 93.3c0 4.1-2.8 7.7-6.8 7.7H24.5c-4 0-7.3-3.6-7.3-7.7L8.9 38h117m1.2-1H7.8l.2 1.1 8.2 55.2c0 4.7 3.8 8.6 8.3 8.6h86.7c4.4 0 7.8-3.8 7.8-8.6l7.9-55.2.2-1.1z"/></g><g fill="#222E47"><path d="M21.5 95.5l-1.1-7h18.1v7zM38 89v6H21.9l-.9-6h17m1-1H19.8l.2 1.1.9 6 .1.9h18v-8z"/></g><g fill="#222E47"><path d="M19.4 84.5l-1-7h20.1v7zM38 78v6H19.9l-.9-6h19m1-1H17.8l.2 1.1.9 6 .1.9h20v-8z"/></g><g fill="#222E47"><path d="M18.4 73.5l-1-7h21.1v7zM38 67v6H18.8l-.8-6h20m1-1H16.9l.2 1.1.8 6 .1.9h21v-8z"/></g><g fill="#222E47"><path d="M16.4 62.5l-1-6h23.1v6zM38 57v5H16.8l-.8-5h22m1-1H14.8l.2 1.2.8 5 .2.8h23v-7z"/></g><g fill="#222E47"><path d="M41.5 88.5h24v7h-24zM65 89v6H42v-6h23m1-1H41v8h25v-8z"/></g><g fill="#222E47"><path d="M41.5 77.5h24v7h-24zM65 78v6H42v-6h23m1-1H41v8h25v-8z"/></g><g fill="#222E47"><path d="M41.5 66.5h24v7h-24zM65 67v6H42v-6h23m1-1H41v8h25v-8z"/></g><g fill="#222E47"><path d="M41.5 56.5h24v6h-24zM65 57v5H42v-5h23m1-1H41v7h25v-7z"/></g><g fill="#222E47"><path d="M69.5 88.5h24v7h-24zM93 89v6H70v-6h23m1-1H69v8h25v-8z"/></g><g fill="#222E47"><path d="M69.5 77.5h24v7h-24zM93 78v6H70v-6h23m1-1H69v8h25v-8z"/></g><g fill="#222E47"><path d="M69.5 66.5h24v7h-24zM93 67v6H70v-6h23m1-1H69v8h25v-8z"/></g><g fill="#222E47"><path d="M69.5 56.5h24v6h-24zM93 57v5H70v-5h23m1-1H69v7h25v-7z"/></g><g fill="#222E47"><path d="M96.5 95.5v-7h18.1l-1 7zM114 89l-.8 6H97v-6h17m1.2-1H96v8h18.1l.1-.9.8-6 .2-1.1z"/></g><g fill="#222E47"><path d="M96.5 84.5v-7h20.1l-1 7zM116 78l-.9 6H97v-6h19m1.2-1H96v8h20l.1-.9.9-6 .2-1.1z"/></g><g fill="#222E47"><path d="M96.5 73.5v-7h21.1l-1 7zM117 67l-.8 6H97v-6h20m1.1-1H96v8h21.1l.1-.9.8-6 .1-1.1z"/></g><g fill="#222E47"><path d="M96.5 62.5v-6h23.1l-1 6zM119 57l-.8 5H97v-5h22m1.2-1H96v7h23l.1-.8.8-5 .3-1.2z"/></g><g><path fill="#fff" d="M5.5 34.5c-2.2 0-4-1.6-4-3.5s1.8-3.5 4-3.5h123c2.2 0 4 1.6 4 3.5s-1.8 3.5-4 3.5H5.5z"/><path fill="#222E47" d="M128.5 28c1.9 0 3.5 1.3 3.5 3s-1.6 3-3.5 3H5.5C3.6 34 2 32.7 2 31s1.6-3 3.5-3h123m0-1H5.5C3 27 1 28.8 1 31s2 4 4.5 4h123c2.5 0 4.5-1.8 4.5-4s-2-4-4.5-4z"/></g><g><path fill="#fff" d="M28.6 54.1c-3.9 0-7.1-3.2-7.1-7.1 0-3.9 3.1-7.1 7-7.1L58.4 5.2c.9-1.1 2.3-1.7 3.7-1.7 1.2 0 2.3.4 3.2 1.2 1 .9 1.6 2 1.7 3.4.1 1.3-.3 2.6-1.2 3.6l-30 34.8v.5c0 3.9-3.2 7.1-7.2 7.1z"/><path fill="#222E47" d="M62.1 4c1 0 2 .4 2.9 1.1 1.8 1.6 2.1 4.4.5 6.2L35.3 46.2l-.1.1v.7c0 3.7-3 6.6-6.7 6.6s-6.6-3-6.6-6.6c0-3.7 3-6.6 6.6-6.6h.1l30-34.8c1-1.1 2.3-1.6 3.5-1.6m0-1c-1.6 0-3.1.7-4.1 1.9L28.3 39.4c-4 .2-7.3 3.5-7.3 7.6 0 4.2 3.4 7.6 7.6 7.6 4.2 0 7.7-3.4 7.7-7.6v-.4L66.2 12c.9-1.1 1.4-2.5 1.3-3.9-.1-1.4-.8-2.8-1.9-3.7-.9-.9-2.2-1.4-3.5-1.4z"/></g><g><path fill="#fff" d="M107.9 54.3c-3.9 0-7.1-3.2-7.1-7.2v-.5L70.7 11.8c-1.8-2.1-1.5-5.2.5-6.9.9-.8 2-1.2 3.2-1.2 1.4 0 2.8.6 3.7 1.7L108 40c3.9.1 7 3.3 7 7.1 0 4-3.2 7.2-7.1 7.2z"/><path fill="#222E47" d="M74.4 4.2c1.2 0 2.5.5 3.3 1.5l30 34.8h.1c3.7 0 6.6 3 6.6 6.6 0 3.7-3 6.7-6.6 6.7-3.7 0-6.6-3-6.6-6.7v-.7l-.1-.1-30-34.8c-1.6-1.8-1.4-4.6.5-6.2.8-.8 1.8-1.1 2.8-1.1m0-1c-1.3 0-2.6.5-3.5 1.3-1.1.9-1.8 2.3-1.9 3.7-.1 1.4.4 2.8 1.3 3.9l29.9 34.7v.3c0 4.2 3.4 7.7 7.6 7.7 4.2 0 7.6-3.4 7.6-7.7 0-4.1-3.2-7.4-7.3-7.6L78.5 5.1c-1-1.2-2.5-1.9-4.1-1.9z"/></g></g><g transform="translate(435)"><g><g><g><g><path fill="#fff" d="M52.6 10.3l-4.7 4.8-4.6-1.3-1.2-4.7 4.6-4.7c-.8-.2-1.6-.3-2.4-.3-4.8 0-8.7 3.9-8.7 8.7 0 .9.1 1.7.4 2.5L14.5 36.7c-1.9.6-3.3 2.4-3.3 4.5 0 2.6 2.1 4.7 4.7 4.7 2.1 0 3.9-1.4 4.5-3.4L41.8 21c.8.2 1.6.4 2.5.4 4.8 0 8.7-3.9 8.7-8.7 0-.7-.1-1.6-.4-2.4zM15.6 43c-.8 0-1.4-.6-1.4-1.4 0-.8.6-1.4 1.4-1.4.8 0 1.4.6 1.4 1.4 0 .8-.6 1.4-1.4 1.4z"/></g></g><g><g><path fill="#fff" d="M51.6 40.2c-.1-2-2.7-3.1-5.2-4.7s-3.9-4-4.6-5c-.6-1-2-2.4-3.3-3.5-1.2-1.1-3.4-1.5-3.4-1.5L30.2 22 21 12.9s.4-.5-.2-1.1c-.7-.7-1.9-2.2-.7-3.9 1.7-2.6 5.7-2.7 6.7-2.5 1.1.3 1-.5.4-.7-1.1-.4-5.2-2.2-12 .7l-5.5 5.5s-.2 2-1.7 3.7c-.4.5-.9.8-1.3 1.1l-.1-.1c-.3-.3-.7-.3-1 0L3.2 18c-.3.3-.3.7 0 1l3.2 3.2c.3.3.7.3 1 0l2.3-2.3c.3-.3.3-.7 0-1l-.2-.2c.5-.6 1.4-1.7 2.5-2.3 2.2-1.1 3.6-.3 4.1.3.6.5.9.1.9.1l1.2 1.2c.1.2 5.8 5.8 6.7 6.6 1 .9 3.9 5.6 5.6 8.6 1.7 3 4.5 4.5 6.4 5.7 1.9 1.2 3.2 3.8 4.2 5.4 1 1.6 1.2 2.5 3 2.8 2.1.4 3.9-2.3 4.7-3 .9-.6 2.9-2 2.8-3.9zM29.8 24.5c-.3.3-.8.4-1 .1l-9-9c-.2-.2-.2-.7.1-1 .3-.3.8-.4 1-.1l9 9c.3.3.3.7-.1 1zm19.4 16.7c-.5.6-1.7 1.9-1.7 1.9s-.1-1.2-.3-1.6c-.2-.4-.5-1-2-1.9-1.5-.9-3.1-2.2-3.9-3.2-.8-.9-2.4-3.5-3.6-4.4-1.2-1-2.8-2-3-2.1-.2-.1-.2-.3-.1-.5s1.1-1.2 1.1-1.2.3-.3 1.5.5 2.7 1.9 3.6 3.1c.9 1.2 2.2 3 3.2 3.9 1.1.9 4.1 3 4.6 3.5.5.6 1.1 1.4.6 2z"/></g></g></g></g></g><g transform="translate(495)"><path fill="#CC2E72" d="M15.6 4.7l-6.9 6.9-1.3 1.3c-.1.1-.4.2-.6.2-.2 0-.5-.1-.6-.3l-1.3-1.3-3.5-3.4c-.1-.2-.2-.4-.2-.6 0-.2.1-.5.3-.6l1.3-1.3c.2-.2.4-.3.6-.3.2 0 .5.1.6.3l2.8 2.8L13 2.1c.2-.2.4-.3.6-.3.2 0 .5.1.6.3l1.3 1.3c.2.2.3.4.3.6.1.3 0 .5-.2.7z"/></g><g transform="translate(520)"><g><g><g><path fill-rule="evenodd" clip-rule="evenodd" fill="#fff" d="M29.4 23.4c1.8-5.9 3.3-12.3 2.1-19.1h-1.8c1.1 7.1-.6 14-2.4 20.1-2.1 7-3.7 14.9-2.7 23.5.2 1.9.6 6.5.6 6.5H9.7s.3-4.6.6-6.5c1-8.6-.6-16.5-2.7-23.5-1.9-6.1-3.5-13-2.5-20.1H3.3c-1.2 6.8.3 13.2 2.1 19.1C7.3 29.3 9 34.8 9.1 41.5c.1 5.8-1 12.6-1.4 14.8h19.4c-.4-2.2-1.5-9-1.4-14.8.2-6.7 1.9-12.2 3.7-18.1z"/></g><g><path fill-rule="evenodd" clip-rule="evenodd" fill="#fff" d="M11.7 41.2c.1 4.2-.4 8.6-.7 12.3h13c-.8-7.5-1-13.3 0-20.3 1.3-8.7 4.9-15.7 4.8-25.1h-2.6c-.2 7.7-3 12.4-4.3 17.9-1.5 6-1 13.7-2.5 20.1 0-7.4-.3-14.9.7-21 1-6 2.8-7.4 3.4-17H6.2v1.7c.6 11.8 5.1 19.8 5.5 31.4z"/></g></g></g></g><g transform="translate(560)"><path fill="#fff" d="M20.1 36.7l-6.9-.6-.1-3-.2-.2V19.3s.6-.2.6-1.2v-6.3s1.9-.8 3-2.4c1.2-1.7.9-4 .9-4s.6-.1.5-1.2c0-.4-.2-.7-.4-.8h-.1v-.1c0-.5-.4-.9-.9-.9-.4 0-.8.3-.9.7-3.1-.3-5.8-.3-9 0-.2-.2-.6-.5-1-.5-.5 0-.9.4-.9.8v.1h-.1c-.3.1-.4.4-.5.8-.1 1.1.5 1.2.5 1.2s-.2 2.3.9 4c1.1 1.6 3 2.4 3 2.4v6.3c0 .9.6 1.2.6 1.2V33l-.2.2-.1 3-6.9.6S1.5 45 2.1 49c.9 5.6 8 8.3 8.8 8.6.9-.3 8-3 8.8-8.6.8-4.1.4-12.3.4-12.3zM6.5 6.3c0-.2 0-.4.1-.6 2.8.5 6 .5 8.9 0 0 .2.1.4.1.6 0 2.3-2 4.2-4.5 4.2-2.6 0-4.6-1.9-4.6-4.2zm6 36.5c0 2.2-1.5 3.7-1.5 3.7v-13s.2-.1.7 0c.5.1.7.2.7.2s.1 6.3.1 9.1zm0-25.4c0 .4-.3.7-.8.7-.4 0-.8-.3-.8-.7V13c0-.4.3-.7.8-.7.4 0 .8.3.8.7v4.4z"/></g><g transform="translate(590)"><g><g><g><g><path fill="#fff" d="M34.9 3.8l-15.7 7.9L2 5.2v43.1l17.1 7.9 15.8-8.7L52 56.2V12.8l-17.1-9zM18.5 53L4.9 46.8V9l13.6 5.1V53zm15.7-8.1l-14.3 7.9V14.3l14.3-7.2v37.8zm14.9 6.9l-13.6-6.9v-9.3l.5-.1-.2-1.1h-.3V7.1l13.6 7.2v37.5z"/></g></g><g><path fill="#fff" d="M9.9 27.1l1.8-1.6 1.9 1.6 1.1-1.1-1.8-1.6 1.8-1.6-1.1-1-1.9 1.6-1.8-1.6-1.2 1 1.9 1.6L8.7 26z"/></g><g><path fill="#fff" d="M12.3 27.5l-1.3-.3-.4 1.4 1.3.3z"/></g><g><path fill="#fff" d="M10.5 30l-1.1 1.1.9.7 1.1-1.1z"/></g><g><path fill="#fff" d="M9 32.6l-1.2-.3-.3 1.5 1.2.2z"/></g><g><path fill="#fff" d="M8.3 35.7l.9 1.2 1-.6-.9-1.2z"/></g><g><path fill="#fff" d="M10.4 38.2l1.1 1 .9-.7-1.1-1z"/></g><g><path fill="#fff" d="M13.1 40.1l1.5.7.6-.9-1.5-.7z"/></g><g><path fill="#fff" d="M18.3 40.6l-1.6-.1-.1 1.1 1.6.1z"/></g><g><path fill="#fff" d="M21.8 41.4l-.3-1.1-1.6.4.3 1z"/></g><g><path fill="#fff" d="M23.1 39.7l.7.9 1.3-.8-.7-.9z"/></g><g><path fill="#fff" d="M25.6 38.1l.9.8 1.2-1-.9-.8z"/></g><g><path fill="#fff" d="M29.5 35.9l-1-.6-1 1.2 1.1.6z"/></g><g><path fill="#fff" d="M32.1 32.5L31 32l-.8 1.3 1.1.5z"/></g><g><path fill="#fff" d="M31.3 31l1.2.3.4-1.4-1.2-.3z"/></g><g><path fill="#fff" d="M33.3 28.183l-1.3-.018.018-1.4 1.3.018z"/></g><g><path fill="#fff" d="M32 25.3l1.2-.2-.2-1.4-1.3.2z"/></g><g><path fill="#fff" d="M32.4 22l-.7-1.3-1.1.4.6 1.3z"/></g><g><path fill="#fff" d="M27.3 19.4l-.7-.9-1.4.7.7 1z"/></g><g><path fill="#fff" d="M30.5 19l-1.4-.7-.7.9 1.4.8z"/></g><g><path fill="#fff" d="M24.6 21l-1.1-.4-.7 1.3 1.1.4z"/></g><g><path fill="#fff" d="M23.4 23.7l-1.2-.3-.4 1.4 1.2.3z"/></g><g><path fill="#fff" d="M21.505 26.497l1.3.008-.01 1.4-1.3-.008z"/></g><g><path fill="#fff" d="M24.1 30.3l-.9-1.2-1 .6.9 1.2z"/></g><g><path fill="#fff" d="M26.7 32.1l-1.3-.8-.8.8 1.3.9z"/></g><g><path fill="#fff" d="M30.1 33.9l-1.5-.6-.6 1 1.5.6z"/></g><g><path fill="#fff" d="M30.8 35.5l1.6.3.3-1.1-1.6-.3z"/></g><g><path fill="#fff" d="M39.3 33.8l-.8-.9-1.2.9.7.9z"/></g><g><path fill="#fff" d="M41.9 31.9l-.8-.9-1.3.9.8.9z"/></g><g><path fill="#fff" d="M44.4 29.6l-.9-.7-1.1 1.1.9.7z"/></g><g><path fill="#fff" d="M46 26.7l-1.2-.3-.5 1.4 1.2.3z"/></g><g><path fill="#fff" d="M44.8 23.5h1.3v1.4h-1.3z"/></g></g></g></g><g transform="translate(650)"><path fill-rule="evenodd" clip-rule="evenodd" fill="#CC2E72" d="M2.6 1.3h18v13.6h-18c-.1-4.5-.1-9 0-13.6-.1 0-.1 0 0 0zm2.1 1.3C5.8 3.7 6.8 4.7 8 6c.8.8 1.7 1.6 2.5 2.5.3.3.6.7.9.7.6.1.9-.4 1.2-.7.9-.9 1.7-1.7 2.5-2.6 1-1 2.2-2.1 3.1-3.1 0 0 .2-.1.1-.2-4.5 0-9.1-.1-13.6 0zm-.9.9v9.2c1.5-1.4 3-3.1 4.5-4.6-1.5-1.6-3-3.1-4.5-4.6zm11.5 4c-.1.1-.6.5-.6.6 0 .1.5.4.6.6 1.2 1.3 2.5 2.6 3.7 3.8.1.1.1.2.3.2V3.6c-1.3 1.2-2.7 2.7-4 3.9zm-3.8 2.9c-1.2 0-1.6-.8-2.3-1.4-.7.6-1.6 1.5-2.4 2.3-.7.7-1.4 1.3-2 2-.1.1-.2.2-.2.3h13.6c-1.3-1.5-3-3-4.4-4.6-.6.6-1.1 1.4-2.3 1.4z"/></g><g transform="translate(680)"><g fill-rule="evenodd" clip-rule="evenodd" fill="#CC2E72" stroke="#CC2E72" stroke-miterlimit="10"><path d="M11.2 22.9C10.1 21.2 9 19.6 7.9 18c-1.3-2-2.4-4.1-3.4-6.2-2.2-4.7.9-9.5 5.2-10.4 4.3-.9 8.2 2 9 6.1.3 1.5-.1 2.8-.6 4.1-1 2.5-2.5 4.8-4 7.1-.9 1.4-1.8 2.7-2.9 4.2zm0-1.6c.1-.1.2-.2.3-.4.5-.8 1.1-1.5 1.6-2.3 1.6-2.4 3.1-4.8 4.2-7.4.3-.9.6-1.7.6-2.7-.2-4.1-3.6-6.9-7.6-6.4-3 .4-5.5 3.1-5.6 6.1-.1 1.4.3 2.6.8 3.7 1.1 2.6 2.6 4.9 4.2 7.2.5.8 1 1.5 1.5 2.2zm0-9.3C9.5 12 8 10.5 8 8.8 8 7 9.5 5.5 11.3 5.5c1.8 0 3.3 1.5 3.2 3.3 0 1.8-1.5 3.2-3.3 3.2zM8.9 8.7c0 1.3 1.1 2.4 2.4 2.4 1.3 0 2.4-1.1 2.4-2.4 0-1.3-1.1-2.4-2.4-2.4-1.3.1-2.4 1.1-2.4 2.4z"/></g></g><g transform="translate(710)"><g><path fill="#fff" d="M8.7 111.5c-3.4 0-6.2-2.8-6.2-6.2V10.5c0-3.4 2.6-6 6-6h68.7c3.2 0 5.2 2.3 5.2 6v94.8c0 3.4-2.8 6.2-6.2 6.2H8.7z"/><path fill="#222E47" d="M77.3 5c3.2 0 4.7 2.4 4.7 5.5v94.8c0 3.1-2.6 5.7-5.7 5.7H8.7c-3.2 0-5.7-2.5-5.7-5.7V10.5C3 7.4 5.4 5 8.5 5h68.8m0-1H8.5C4.8 4 2 6.8 2 10.5v94.8c0 3.7 3 6.7 6.7 6.7h67.5c3.7 0 6.7-3 6.7-6.7V10.5C83 6.6 80.7 4 77.3 4z"/></g><g fill="#222E47"><path d="M42.5 108.5c-1.7 0-3-1.3-3-3s1.3-3 3-3 3 1.3 3 3-1.4 3-3 3zm0-5.5c1.4 0 2.5 1.1 2.5 2.5s-1.1 2.5-2.5 2.5-2.5-1.1-2.5-2.5 1.1-2.5 2.5-2.5m0-1c-1.9 0-3.5 1.6-3.5 3.5s1.6 3.5 3.5 3.5 3.5-1.6 3.5-3.5-1.6-3.5-3.5-3.5z"/></g><g fill="#222E47"><path d="M6.5 7.5h72v92h-72zM78 8v91H7V8h71m1-1H6v93h73V7z"/></g><g><path fill="#fff" d="M96.2 111.5c-2.1 0-3.7-1.6-3.7-3.7V57.2c0-2.1 1.6-3.7 3.7-3.7h23.5c2.1 0 3.7 1.6 3.7 3.7v50.7c0 2.1-1.6 3.7-3.7 3.7H96.2z"/><path fill="#222E47" d="M119.8 54c1.9 0 3.2 1.5 3.2 3.2v50.7c0 1.7-1.4 3.2-3.2 3.2H96.2c-1.9 0-3.2-1.5-3.2-3.2V57.2c0-1.7 1.4-3.2 3.2-3.2h23.6m0-1H96.2c-2.4 0-4.2 1.8-4.2 4.2v50.7c0 2.3 1.9 4.2 4.2 4.2h23.5c2.4 0 4.2-1.8 4.2-4.2V57.2c.1-2.4-1.8-4.2-4.1-4.2z"/></g><g fill="#222E47"><path d="M108.4 108.5c-1.7 0-3-1.3-3-3s1.3-3 3-3 3 1.3 3 3-1.4 3-3 3zm0-5.5c1.4 0 2.5 1.1 2.5 2.5s-1.1 2.5-2.5 2.5-2.5-1.1-2.5-2.5 1.1-2.5 2.5-2.5m0-1c-1.9 0-3.5 1.6-3.5 3.5s1.6 3.5 3.5 3.5 3.5-1.6 3.5-3.5-1.6-3.5-3.5-3.5z"/></g><g fill="#222E47"><path d="M95.5 56.5h25v43h-25zm24.5.5v42H96V57h24m1-1H95v44h26V56z"/></g></g><g transform="translate(840)"><g><path fill="#fff" d="M5.8 80.2V11c0-3.2 2.6-5.8 5.7-5.8H131c3.2 0 5.7 2.6 5.7 5.8v69.2H5.8z"/><path fill="#222E47" d="M131.1 5.7c2.9 0 5.2 2.4 5.2 5.3v68.7H6.3V11c0-2.9 2.3-5.3 5.2-5.3h119.6m0-1H11.6c-3.4 0-6.2 2.8-6.2 6.3v69.7h132V11c-.1-3.5-2.8-6.3-6.3-6.3z"/></g><g fill="#222E47"><path d="M10.8 9.2h121v68h-121zm120.5.5v67h-120v-67h120m1-1h-122v69h122v-69z"/></g><g><path fill="#fff" d="M50 112.2v-5.5l.7.2s.3.1.8.1c2.8 0 4.4-3.4 4.4-9.3v-1.5H11.3c-3 0-5.5-2.7-5.5-6.1v-9.9h131v9.9c0 3.4-2.5 6.1-5.5 6.1H86.9c.1 5.5 1.4 8.1 2.6 9.3 1.3 1.4 2.6 1.4 2.7 1.4h.5v5.3H50z"/><path fill="#222E47" d="M136.3 80.7v9.4c0 2.9-2.1 5.6-5 5.6h-45c0 11.4 5.3 11.7 5.8 11.7v4.3H50.5v-4.3s.4.1.9.1c1.6 0 4.9-1.1 4.9-9.8v-2h-45c-2.9 0-5-2.7-5-5.6v-9.4h130m1-1H5.3v10.4c0 3.6 2.7 6.6 6 6.6h44v1c0 5.6-1.4 8.8-3.9 8.8-.4 0-.6-.1-.6-.1l-1.3-.4v6.7h43.6v-6.4l-1.1.1c-.2 0-4.5-.1-4.7-9.7h44c3.3 0 6-3 6-6.6V79.7z"/></g><g fill="#222E47"><path d="M71.3 97c-3.3 0-6-2.7-6-6s2.7-6 6-6 6 2.7 6 6-2.6 6-6 6zm0-11.5c3 0 5.5 2.5 5.5 5.5s-2.5 5.5-5.5 5.5-5.5-2.5-5.5-5.5c0-3.1 2.5-5.5 5.5-5.5m0-1c-3.6 0-6.5 2.9-6.5 6.5s2.9 6.5 6.5 6.5 6.5-2.9 6.5-6.5-2.9-6.5-6.5-6.5z"/></g></g><g transform="translate(985)"><path fill-rule="evenodd" clip-rule="evenodd" fill="none" stroke="#CC2E72" stroke-width="1.5" stroke-miterlimit="10" d="M2.6 5.8c0-1.6.7-2.7 1.9-3.5.2-.1.5-.1.7 0 .4.4.8.7 1.2 1 .9.9 1.7 2 2.3 3.2.3.6.3 1-.2 1.6l-.6.6c-.4.4-.4.5-.2.9.7 1.2 1.7 2.2 2.8 2.9.4.2.5.2.9-.1.2-.2.4-.4.6-.7.5-.5.9-.6 1.5-.2 1.5.8 2.7 1.9 3.8 3.3.1.1.2.3.2.5.1.3.1.5-.1.8-1 1.7-2.6 2.1-4.4 1.7-1.3-.4-2.5-1.1-3.6-1.9-2.1-1.6-3.8-3.4-5.3-5.6-.6-1.2-1.2-2.4-1.4-3.7-.1-.3-.1-.6-.1-.8z"/></g><g transform="translate(1010)"><path fill-rule="evenodd" clip-rule="evenodd" fill="#CC2E72" d="M1.2 3.9c0-1.4.6-2.4 1.6-3 .2-.1.4-.1.6 0 .3.2.7.5 1 .8.8.8 1.5 1.7 2 2.7.4.6.3.9-.1 1.4-.2.2-.4.3-.5.5-.3.4-.4.5-.2.9.6 1 1.4 1.9 2.4 2.5.3.2.5.2.8-.1l.6-.6c.5-.5.8-.5 1.3-.2 1.3.7 2.4 1.7 3.3 2.8.1.1.2.3.2.4.1.2.1.4-.1.7-.9 1.4-2.2 1.9-3.8 1.4-1.2-.3-2.2-.9-3.1-1.6-1.8-1.4-3.3-3-4.6-4.9-.6-.9-1.1-1.9-1.3-3.1-.1-.2-.1-.5-.1-.6z"/></g><g transform="translate(1030)"><path fill="#fff" d="M37 34.6h-4.3l-3.2-15.4c.3-1 .5-2.1.5-3.2 0-5-3.6-9.1-8.4-9.9V2.6h-3.3V6c-4.7.8-8.3 5-8.3 10 0 1.1.2 2.2.5 3.2L7.3 34.6H3v3h3.6l-1.7 8.2h1.2l-.6 11.8 3.1-11.3c.2.1.4.1.6.1.8 0 1.4-.6 1.4-1.4 0-.6-.3-1-.8-1.3l2.2-6.2h7v1.9h2v-1.9h7l2.2 6.2c-.5.2-.8.7-.8 1.3 0 .8.6 1.4 1.4 1.4.2 0 .4-.1.6-.1l3.1 11.3-.7-11.8H35l-1.7-8.2H37v-3zM20 10c3.3 0 6 2.7 6 6s-2.7 6-6 6-6-2.7-6-6c0-3.4 2.7-6 6-6zm1 24.6v-1.8h-2v1.8h-5.9l3.4-9.2c1.1.4 2.3.7 3.6.7 1.3 0 2.5-.2 3.6-.7l3.4 9.2H21z"/></g><g transform="translate(1075)"><path fill="#CC2E72" d="M19.5 13c.1-.6.2-1.2.2-1.8 0-4.7-3.8-8.6-8.6-8.6-.5 0-1 0-1.5.1-.7-.5-1.6-.8-2.6-.8-2.8 0-5 2.2-5 5 0 .9.3 1.8.7 2.5-.1.6-.2 1.1-.2 1.7 0 4.7 3.8 8.6 8.6 8.6.5 0 1.1 0 1.6-.1.7.4 1.5.6 2.4.6 2.7 0 5-2.2 5-5-.1-.8-.3-1.5-.6-2.2zm-4 2.3c-.4.6-1 1-1.7 1.3-.8.3-1.7.5-2.7.5-1.2 0-2.3-.2-3.1-.6-.6-.3-1.1-.7-1.4-1.3-.4-.5-.5-1-.5-1.6 0-.3.1-.6.4-.8.2-.2.5-.3.9-.3.3 0 .5.1.8.3.2.2.4.4.5.7.2.3.3.6.5.9.2.2.4.4.7.6.3.1.7.2 1.2.2.7 0 1.3-.2 1.7-.5.4-.3.6-.6.6-1.1 0-.3-.1-.6-.3-.8-.2-.2-.5-.4-.9-.5-.4-.1-.9-.3-1.6-.4-.9-.2-1.6-.4-2.2-.7-.6-.3-1.1-.6-1.5-1.1-.4-.5-.6-1-.6-1.7 0-.6.2-1.2.6-1.7.4-.5.9-.9 1.7-1.2.7-.3 1.6-.4 2.5-.4.8 0 1.4.1 2 .3.6.2 1 .4 1.4.7.4.3.7.6.8.9.2.3.3.7.3 1 0 .3-.1.6-.4.8-.2.2-.5.4-.9.4-.3 0-.6-.1-.7-.2-.2-.1-.3-.4-.5-.7-.2-.4-.5-.7-.8-1-.3-.2-.8-.3-1.4-.3-.6 0-1.1.1-1.5.4-.4.2-.5.5-.5.8 0 .2.1.4.2.5 0 .1.2.3.4.4.2.1.5.2.7.3.2.1.6.2 1.2.3.7.1 1.3.3 1.9.5.6.2 1.1.4 1.5.7.4.3.7.6 1 1 .2.4.3.9.3 1.5 0 .7-.2 1.3-.6 1.9z"/></g><g transform="translate(1105)"><g><path fill="#fff" d="M39.8 111.5c-.6 0-1.2 0-1.9-.1l-1.3-7h-.4c-1.2-.2-2.5-.4-3.8-.8l-.3-.1-3.9 6c-1.2-.4-2.4-.9-3.6-1.5l1.4-7-.3-.2c-1.1-.6-2.2-1.4-3.2-2.2l-.3-.2-5.9 4c-1-.9-1.9-1.8-2.7-2.7l4-5.9-.2-.3c-.8-1-1.5-2.1-2.2-3.2L15 90l-7 1.4c-.6-1.1-1-2.3-1.5-3.6l6-3.9-.1-.3c-.3-1.3-.6-2.5-.8-3.8v-.4l-7-1.3c0-.7-.1-1.3-.1-1.9 0-.6 0-1.2.1-1.9l7-1.3v-.4c.2-1.3.4-2.5.8-3.8l.1-.3-6-3.9c.4-1.3.9-2.5 1.5-3.6l7 1.4.2-.3c.6-1.1 1.4-2.2 2.1-3.2l.2-.3-4-5.9c.9-1 1.8-1.9 2.7-2.7l5.9 4 .3-.2c1-.8 2.1-1.5 3.2-2.2l.3-.2-1.4-7c1.2-.6 2.4-1 3.6-1.5l3.9 6 .3-.1c1.3-.3 2.5-.6 3.8-.8h.4l1.3-7c.7 0 1.3-.1 1.9-.1.6 0 1.2 0 1.9.1l1.3 7h.4c1.2.2 2.5.4 3.8.8l.3.1 3.9-6c1.2.4 2.4.9 3.6 1.5l-1.4 7 .3.2c1.1.6 2.2 1.3 3.2 2.2l.3.2 5.9-4c1 .9 1.9 1.8 2.7 2.7l-4 5.9.2.3c.8 1.1 1.5 2.1 2.1 3.2l.2.3 7-1.4c.6 1.2 1 2.4 1.5 3.6L67 68.5l.1.3c.4 1.3.6 2.6.8 3.8v.4l7 1.3c0 .7.1 1.3.1 1.9 0 .6 0 1.2-.1 1.9l-7 1.3v.4c-.2 1.2-.4 2.5-.8 3.8v.4l5.9 3.9c-.4 1.2-.9 2.4-1.5 3.6l-7-1.4-.2.3c-.6 1.1-1.3 2.2-2.2 3.2l-.1.3 4 5.9c-.9 1-1.8 1.9-2.7 2.7l-5.9-4-.3.2c-1 .8-2.1 1.5-3.2 2.2l-.3.2 1.4 7c-1.2.6-2.4 1-3.6 1.5l-3.9-6-.3.1c-1.3.3-2.5.6-3.8.8H43l-1.3 7h-1.9z"/><path fill="#222E47" d="M39.8 41.5h1.5l1.2 6.2.1.7.7.1c1.2.2 2.5.4 3.7.7l.7.2.4-.6 3.5-5.3c1 .3 1.9.7 2.8 1.2L53.2 51l-.2.7.6.4c1.1.6 2.1 1.3 3.2 2.1l.6.4.6-.4 5.3-3.6c.7.7 1.5 1.4 2.2 2.2L61.8 58l-.4.6.4.6c.8 1 1.5 2.1 2.1 3.2l.4.6.7-.1 6.2-1.3c.4.9.8 1.9 1.2 2.8l-5.3 3.5-.6.4.2.7c.3 1.3.6 2.5.7 3.7l.1.7.7.1 6.3 1.2v3L68.2 79l-.7.1-.1.7c-.2 1.2-.4 2.4-.7 3.7l-.2.7.6.4 5.3 3.5c-.3 1-.7 1.9-1.2 2.8L65 89.6l-.7-.1-.3.6c-.6 1.1-1.3 2.1-2.1 3.2l-.4.6.4.6 3.6 5.3c-.7.7-1.4 1.5-2.1 2.2L58 98.3l-.6-.4-.6.4c-1 .8-2.1 1.5-3.1 2.1l-.6.4.1.7 1.3 6.2c-.9.4-1.8.8-2.8 1.2l-3.5-5.3-.4-.6-.7.2c-1.2.3-2.5.6-3.7.7l-.7.1-.1.7-1.2 6.2h-3l-1.2-6.2-.1-.7-.7-.1c-1.2-.2-2.5-.4-3.7-.7l-.7-.2-.4.6-3.5 5.3c-1-.3-1.9-.7-2.8-1.2l1.3-6.2.1-.7-.6-.4c-1.1-.6-2.1-1.3-3.1-2.1l-.6-.4-.6.4-5.3 3.6c-.7-.7-1.5-1.4-2.2-2.2l3.6-5.3.4-.6-.4-.6c-.8-1-1.5-2.1-2.1-3.1l-.4-.6-.7.1-6.2 1.3c-.4-.9-.8-1.8-1.2-2.8l5.3-3.5.6-.4-.2-.7c-.3-1.2-.6-2.5-.7-3.7l-.3-.7-.7-.1L5 77.8v-3l6.2-1.2.7-.1.1-.7c.2-1.2.4-2.5.7-3.7l.2-.7-.6-.4L7 64.5c.3-1 .7-1.9 1.2-2.8l6.2 1.3.7.1.4-.6c.6-1.1 1.3-2.1 2.1-3.1l.4-.6-.3-.8-3.6-5.3c.7-.7 1.4-1.5 2.2-2.1l5.3 3.6.6.4.6-.4c1-.8 2.1-1.5 3.1-2.1l.6-.4-.1-.7-1.3-6.2c.9-.4 1.9-.8 2.8-1.2l3.5 5.3.4.6.7-.2c1.3-.3 2.5-.6 3.7-.7l.7-.1.1-.7 1.2-6.2c.6-.1 1.1-.1 1.6-.1m0-1c-.8 0-1.6 0-2.4.1l-1.3 7c-1.3.2-2.6.4-3.9.8l-3.9-6c-1.5.5-3 1.1-4.4 1.8l1.4 7c-1.1.7-2.2 1.4-3.3 2.2l-5.9-4c-1.2 1-2.3 2.1-3.3 3.3l4 5.9c-.8 1-1.5 2.1-2.2 3.3l-7-1.4c-.7 1.4-1.3 2.9-1.8 4.4l6 3.9c-.3 1.3-.6 2.5-.8 3.9L4 74v2.2c0 .8 0 1.6.1 2.4l7 1.3c.2 1.3.4 2.6.8 3.9l-6 3.9c.5 1.5 1.1 3 1.8 4.4l7-1.4c.7 1.1 1.4 2.2 2.2 3.3l-4 5.9c1 1.2 2.1 2.3 3.3 3.3l5.9-4c1 .8 2.1 1.5 3.3 2.2l-1.4 7c1.4.7 2.9 1.3 4.4 1.8l3.9-6c1.3.3 2.5.6 3.9.8l1.3 7c.8.1 1.6.1 2.4.1.8 0 1.6 0 2.4-.1l1.3-7c1.3-.2 2.6-.4 3.9-.8l3.9 6c1.5-.5 2.9-1.1 4.3-1.8l-1.4-7c1.1-.7 2.2-1.4 3.3-2.2l5.9 4c1.2-1 2.3-2.2 3.3-3.3l-4-5.9c.8-1 1.5-2.1 2.2-3.3l7 1.4c.7-1.4 1.3-2.9 1.8-4.4l-6-3.9c.3-1.3.6-2.5.8-3.9l7-1.3c.1-.8.1-1.6.1-2.4 0-.8 0-1.6-.1-2.4l-7-1.3c-.2-1.3-.4-2.6-.8-3.9l6-3.9c-.5-1.5-1.1-3-1.8-4.4l-7 1.4c-.7-1.1-1.4-2.2-2.2-3.3l4-5.9c-1-1.2-2.2-2.3-3.3-3.3l-5.9 4c-1-.8-2.1-1.5-3.3-2.2l1.4-7c-1.4-.7-2.9-1.3-4.3-1.8l-3.9 6c-1.3-.3-2.5-.6-3.9-.8l-1.3-7c-1 .1-1.7.1-2.5.1z"/></g><g><path fill="#fff" d="M39.8 87.2c-6.1 0-11-4.9-11-11s4.9-11 11-11 11 4.9 11 11-5 11-11 11z"/><path fill="#222E47" d="M39.8 65.7c5.8 0 10.5 4.7 10.5 10.5s-4.7 10.5-10.5 10.5S29.3 82 29.3 76.2c0-5.7 4.7-10.5 10.5-10.5m0-1c-6.4 0-11.5 5.1-11.5 11.5s5.1 11.5 11.5 11.5c6.3 0 11.5-5.1 11.5-11.5 0-6.3-5.2-11.5-11.5-11.5z"/></g><g fill="#222E47"><path d="M39.8 82.2c-3.3 0-6-2.7-6-6s2.7-6 6-6 6 2.7 6 6c0 3.4-2.7 6-6 6zm0-11.5c3 0 5.5 2.5 5.5 5.5s-2.5 5.5-5.5 5.5-5.5-2.5-5.5-5.5 2.4-5.5 5.5-5.5m0-1c-3.6 0-6.5 2.9-6.5 6.5s2.9 6.5 6.5 6.5 6.5-2.9 6.5-6.5c0-3.5-3-6.5-6.5-6.5z"/></g><g><path fill="#fff" d="M91.3 62.9h-1.6L88.6 57h-.4c-1-.1-2.1-.3-3.2-.6l-.3-.1-3.3 5c-1-.3-2-.7-2.9-1.2l1.2-5.8-.2-.3c-.9-.5-1.8-1.1-2.7-1.8l-.3-.2-4.9 3.4c-.8-.7-1.5-1.4-2.2-2.2l3.4-4.9-.2-.3c-.7-.9-1.3-1.8-1.8-2.7l-.2-.3-5.8 1.2c-.5-.9-.9-1.9-1.2-2.9l5-3.3-.1-.4c-.3-1-.5-2.1-.6-3.2V36l-6-1v-3.2l5.9-1.1v-.4c.1-1.1.3-2.1.6-3.2l.1-.4-5-3.3c.3-1 .7-1.9 1.2-2.9l5.8 1.2.2-.3c.5-.9 1.1-1.8 1.8-2.7l.2-.3-3.4-4.9c.7-.8 1.4-1.5 2.2-2.2l4.9 3.4.3-.2c.9-.7 1.8-1.3 2.7-1.8l.3-.2-1.2-5.8c.9-.4 1.9-.8 2.9-1.2l3.3 5 .3-.1c1.1-.3 2.1-.5 3.2-.6h.4l1.1-5.9h3.2L94 9.8h.4c1 .1 2.1.3 3.2.6l.3.1 3.3-5c1 .3 2 .7 2.9 1.2l-1.2 5.8.3.2c.9.5 1.8 1.1 2.7 1.8l.3.2 4.9-3.3c.8.7 1.5 1.4 2.2 2.2l-3.4 4.9.2.3c.7.9 1.3 1.8 1.8 2.7l.2.3 5.8-1.2c.4.9.8 1.9 1.2 2.9l-5 3.3.1.3c.3 1.1.5 2.1.6 3.2v.4l5.9 1.1c0 .6.1 1.1.1 1.6s0 1-.1 1.6l-5.9 1.1v.4c-.1 1-.3 2.1-.6 3.2l-.1.3 5 3.3c-.4 1-.8 2-1.2 2.9l-5.8-1.2-.2.3c-.5.9-1.1 1.8-1.8 2.7l-.2.3 3.3 4.9c-.7.8-1.4 1.5-2.2 2.2l-4.9-3.3-.3.2c-.9.7-1.8 1.3-2.7 1.8l-.3.2L104 60c-.9.4-1.9.8-2.9 1.2l-3.3-5-.3.1c-1.1.3-2.1.5-3.2.6l-.3.1-1.1 5.9h-1.6z"/><path fill="#222E47" d="M91.3 4.4h1.1l1 5.1.1.7.7.1c1 .1 2.1.3 3.1.6l.7.2.4-.6 2.9-4.4 2.1.9-1.1 5.1-.1.7.6.4c.9.5 1.8 1.1 2.6 1.8l.6.4.6-.4 4.3-2.9c.6.5 1.1 1.1 1.6 1.6l-2.9 4.3-.4.6.4.6c.7.9 1.2 1.7 1.8 2.6l.4.6.7-.1 5.1-1.1.9 2.1-4.4 2.9-.6.4.2.7c.3 1 .5 2.1.6 3.1l.1.7.7.1 5.1 1v2.2l-5.1 1-.7.1-.1.7c-.1 1-.3 2.1-.6 3.1l-.2.7.6.4 4.4 2.9-.9 2.1-5.1-1.1-.7-.1-.4.6c-.5.9-1.1 1.8-1.8 2.6l-.4.6.4.6 2.9 4.3c-.5.6-1.1 1.1-1.6 1.6l-4.3-2.9-.6-.4-.6.4c-.9.7-1.7 1.3-2.6 1.8l-.6.4.1.7 1.1 5.1-2.1.9-2.9-4.4-.4-.6-.7.2c-1 .3-2.1.5-3.1.6l-.7.1-.1.7-1 5.1h-2.2l-1-5.1-.1-.7-.7-.1c-1-.1-2.1-.3-3.1-.6l-.7-.2-.4.6-2.9 4.4-2.1-.9 1.1-5.1.1-.7-.6-.4c-.9-.5-1.8-1.1-2.6-1.8l-.6-.4-.6.6-4.3 2.9c-.6-.5-1.1-1.1-1.6-1.6l2.9-4.3.4-.6-.4-.6c-.7-.9-1.3-1.7-1.8-2.6l-.4-.6-.7.1-5.1 1-.9-2.1 4.4-2.9.6-.4-.2-.7c-.3-1-.5-2-.6-3.1l-.1-.7-.7-.1-5.1-1v-2.2l5.1-1 .7-.1.1-.7c.1-1 .3-2.1.6-3.1l.2-.7-.6-.4-4.4-2.9c.3-.7.5-1.4.9-2.1l5.1 1.1.7.1.4-.6c.5-.9 1.1-1.8 1.8-2.6l.4-.6-.4-.7-3-4.3c.5-.6 1.1-1.1 1.6-1.6L76 15l.6.4.6-.4c.9-.7 1.7-1.3 2.6-1.8l.6-.4-.1-.7L79.2 7l2.1-.9 2.9 4.4.4.6.7-.2c1-.3 2.1-.5 3.1-.6l.7-.1.1-.7 1-5.1h1.1m0-1c-.7 0-1.3 0-2 .1l-1.1 5.9c-1.1.1-2.2.3-3.2.6l-3.3-5c-1.3.4-2.5.9-3.7 1.5l1.2 5.9c-1 .5-1.9 1.2-2.7 1.8l-5-3.4c-1 .9-1.9 1.8-2.8 2.8l3.4 5c-.7.9-1.3 1.8-1.8 2.7l-5.9-1.2c-.6 1.2-1.1 2.4-1.5 3.6l5 3.3c-.3 1.1-.5 2.1-.6 3.2l-5.9 1.1c0 .7-.1 1.3-.1 2s0 1.3.1 2l5.9 1.1c.1 1.1.4 2.2.6 3.2l-5 3.3c.4 1.3.9 2.5 1.5 3.7l5.9-1.2c.5 1 1.2 1.9 1.8 2.7l-3.4 5c.9 1 1.8 1.9 2.8 2.8l5-3.4c.9.7 1.8 1.3 2.7 1.8l-1.2 6c1.2.6 2.4 1.1 3.7 1.5l3.3-5c1.1.3 2.1.5 3.2.6l1.1 5.9c.7 0 1.3.1 2 .1s1.3 0 2-.1l1.1-5.9c1.1-.1 2.2-.4 3.2-.6l3.3 5c1.3-.4 2.5-.9 3.7-1.5l-1.2-5.9c1-.5 1.9-1.2 2.7-1.8l5 3.4c1-.9 1.9-1.8 2.8-2.8l-3.4-5c.7-.9 1.3-1.8 1.8-2.7l5.9 1.2c.6-1.2 1.1-2.4 1.5-3.6l-5-3.3c.3-1 .5-2.1.6-3.2l5.9-1.1c0-.7.1-1.3.1-2s0-1.3-.1-2l-5.9-1.1c-.1-1.1-.4-2.2-.6-3.2l5-3.3c-.4-1.3-.9-2.5-1.5-3.6l-5.9 1.2c-.5-1-1.2-1.9-1.8-2.7l3.4-5c-.9-1-1.8-1.9-2.8-2.8l-5 3.4c-.9-.7-1.8-1.3-2.7-1.8l1.2-5.9c-1.2-.6-2.4-1.1-3.7-1.5l-3.3 5c-1.1-.3-2.1-.5-3.2-.6l-1.1-5.9c-.7-.3-1.3-.3-2-.3z"/></g><g><path fill="#fff" d="M91.3 42.9c-5.2 0-9.5-4.3-9.5-9.5s4.3-9.5 9.5-9.5 9.5 4.3 9.5 9.5-4.2 9.5-9.5 9.5z"/><path fill="#222E47" d="M91.3 24.4c5 0 9 4 9 9s-4 9-9 9-9-4-9-9 4.1-9 9-9m0-1c-5.5 0-10 4.5-10 10s4.5 10 10 10 10-4.5 10-10-4.5-10-10-10z"/></g><g fill="#222E47"><path d="M91.3 38.4c-2.8 0-5-2.2-5-5s2.2-5 5-5 5 2.2 5 5-2.2 5-5 5zm0-9.5c2.5 0 4.5 2 4.5 4.5s-2 4.5-4.5 4.5-4.5-2-4.5-4.5 2-4.5 4.5-4.5m0-1c-3 0-5.5 2.5-5.5 5.5s2.5 5.5 5.5 5.5 5.5-2.5 5.5-5.5-2.4-5.5-5.5-5.5z"/></g></g></svg>