<?xml version="1.0" encoding="utf-8"?>
<!-- Generator: Adobe Illustrator 18.1.1, SVG Export Plug-In . SVG Version: 6.00 Build 0)  -->
<svg version="1.1" id="Слой_1" xmlns="http://www.w3.org/2000/svg" xmlns:xlink="http://www.w3.org/1999/xlink" x="0px" y="0px"
	 viewBox="0 0 185 80" enable-background="new 0 0 185 80" xml:space="preserve">
<g>
	<path fill-rule="evenodd" clip-rule="evenodd" fill="#FFFFFF" d="M175.4,6.4c-0.7,0.4-18.2,9.7-32.5,13.7c-5,1.4-10.4,2.4-16.2,3.1
		l-0.1,0c0.1-1.7,0.2-3.4,0.2-5.2l0-1.4l-1.2-0.7c-9-5.4-20.6-8.3-32.6-8.3c-12.2,0-23.7,3.1-32.4,8.7l-1.1,0.7l0,1.3
		c0,1.7,0,3.3,0.2,4.9l-0.1,0c-5.8-0.7-11.3-1.7-16.2-3.1c-14.2-4-31.8-13.3-32.5-13.7L3,2.3c0.4,1.3,5.3,14.9,18.4,22.6l0.2,0.1
		l0,0.7c0,0.2,0.3,5,4.1,8.3c2,1.8,4.9,3.6,8.5,5.2l0.1,0l3.2,4.4c0.3,0.4,2.6,3.5,6.2,4.8l0.1,0l1.6,1.8c0.2,0.2,4.1,4.5,12.3,6.6
		c2.2,0.6,5.2,2,5.7,2.3L65,60c0.1,0.1,3.6,1.6,9,1.6c0.2,0,0.4,0,0.6,0l0,0c5,6.7,10.8,12,17.2,15.6l1.2,0.7l1.2-0.7
		c6.3-3.5,12.1-8.8,17.1-15.6l0.1,0c0.2,0,0.4,0,0.6,0c5.5,0,9-1.6,9-1.6l1.6-0.7c1-0.5,3.7-1.7,5.7-2.3c8.2-2.2,12.2-6.6,12.2-6.6
		l1.6-1.8l0.1,0c3.5-1.3,5.9-4.5,6.2-4.8l3.2-4.4l0.1,0c3.6-1.6,6.5-3.4,8.5-5.2c3.7-3.2,4.1-7.8,4.1-8.3l0-0.7l0.2-0.1
		c13.1-7.7,18-21.3,18.4-22.6L175.4,6.4z"/>
	<g>
		<path fill-rule="evenodd" clip-rule="evenodd" fill="#222E47" d="M30.8,26.4C13.5,18,9.3,8.9,9.3,8.9s18.1,9.7,33.1,13.9
			c10,2.8,19.8,3.6,24.3,3.8c13.1,0.6,12,5.2,6.2,6C68.7,33.3,49.6,35.5,30.8,26.4z"/>
		<path fill-rule="evenodd" clip-rule="evenodd" fill="#222E47" d="M76,41.2c-8.2,1-19.8,2.5-33.6-2c-15.4-5-16.8-9.9-16.8-9.9
			s11.1,4.2,24.1,6.3c10.8,1.7,22.4,1.5,24.4,1.4C83.6,36.7,81.9,40.4,76,41.2z"/>
		<path fill-rule="evenodd" clip-rule="evenodd" fill="#222E47" d="M79.2,46.5c-4.9,2.2-14,3.5-22.3,2.7c-12.6-1.2-17-7.2-17-7.2
			s9.5,2.1,20.1,2.8c9.8,0.6,17-1.2,18.5-1.5C84.7,41.8,85.5,43.7,79.2,46.5z"/>
		<path fill-rule="evenodd" clip-rule="evenodd" fill="#222E47" d="M82.3,50.8c-3.9,3-11.6,6-23.1,3.8c-3.3-0.6-5.9-2.2-5.9-2.2
			s7.1,0.2,14.7-0.7c7.1-0.9,12-2.8,13-3.3C84.8,46.6,86.3,47.7,82.3,50.8z"/>
		<path fill-rule="evenodd" clip-rule="evenodd" fill="#222E47" d="M86.2,52.6C85,55.5,82.6,56.8,80,58c-6.2,2.8-13.5,0.2-13.5,0.2
			s8.3,0,12-2.5c3.3-2.2,5.2-4.1,5.9-4.9C86.2,49,87.5,49.7,86.2,52.6z"/>
	</g>
	<g>
		<path fill-rule="evenodd" clip-rule="evenodd" fill="#222E47" d="M155.2,26.4c17.3-8.4,21.5-17.5,21.5-17.5s-18.1,9.7-33.1,13.9
			c-10,2.8-19.8,3.6-24.3,3.8c-13.1,0.6-12,5.2-6.2,6C117.3,33.3,136.4,35.5,155.2,26.4z"/>
		<path fill-rule="evenodd" clip-rule="evenodd" fill="#222E47" d="M110,41.2c8.2,1,19.8,2.5,33.6-2c15.4-5,16.8-9.9,16.8-9.9
			s-11.1,4.2-24.1,6.3c-10.8,1.7-22.4,1.5-24.4,1.4C102.4,36.7,104.1,40.4,110,41.2z"/>
		<path fill-rule="evenodd" clip-rule="evenodd" fill="#222E47" d="M106.8,46.5c4.9,2.2,14,3.5,22.3,2.7c12.6-1.2,17-7.2,17-7.2
			s-9.5,2.1-20.1,2.8c-9.8,0.6-17-1.2-18.5-1.5C101.3,41.8,100.5,43.7,106.8,46.5z"/>
		<path fill-rule="evenodd" clip-rule="evenodd" fill="#222E47" d="M103.7,50.8c3.9,3,11.6,6,23.1,3.8c3.3-0.6,5.9-2.2,5.9-2.2
			s-7.1,0.2-14.7-0.7c-7.1-0.9-12-2.8-13-3.3C101.2,46.6,99.7,47.7,103.7,50.8z"/>
		<path fill-rule="evenodd" clip-rule="evenodd" fill="#222E47" d="M99.8,52.6c1.3,2.9,3.6,4.2,6.2,5.4c6.2,2.8,13.5,0.2,13.5,0.2
			s-8.3,0-12-2.5c-3.3-2.2-5.2-4.1-5.9-4.9C99.8,49,98.5,49.7,99.8,52.6z"/>
	</g>
	<path fill-rule="evenodd" clip-rule="evenodd" fill="#222E47" d="M91.9,74.7C80,68.1,70,54.6,64.5,37.7l0-0.1
		c-1.3-4.6-2.8-10.7-2.7-17.6l0-1.2l1-0.7c8.1-5.2,18.8-8.1,30.1-8.1c11.1,0,21.9,2.7,30.2,7.7l1.1,0.7l0,1.3
		c0.1,6.9-1.4,13.1-2.7,17.6l0,0.1c-5.6,17.1-15.6,30.7-27.4,37.2L93,75.3L91.9,74.7z"/>
	<path fill-rule="evenodd" clip-rule="evenodd" fill="#CC2E72" d="M92,72.4c-11-6.1-20.3-18.6-25.4-34.3l0-0.1
		c-1.2-4.2-2.6-9.9-2.5-16.3l0-1.1l1-0.6c7.5-4.8,17.4-7.5,27.9-7.5c10.3,0,20.3,2.5,28,7.2l1,0.6l0,1.2c0.1,6.4-1.3,12.1-2.5,16.3
		l0,0.1C114.2,53.7,105,66.3,94,72.4l-1,0.6L92,72.4z"/>
	<g>
		<path fill="#222E47" d="M142.6,37l-2.4-2.2c0,0,0,0,0,0l0,0l0,0l0,0c-0.1-0.1-0.3-0.2-0.5-0.2c-0.1,0-0.1,0-0.1,0l-1.9,0.3
			c-0.3,0.1-0.6,0.3-0.6,0.7l-0.3,2.8c0,0-0.1-0.1-0.1-0.1l-2.4-2.2l0,0c-0.1-0.1-0.1-0.1-0.2-0.2c-0.3-0.2-0.6-0.3-1-0.3
			c0,0,0,0-0.1,0l-0.1,0c0,0,0,0,0,0c-0.3,0-0.7,0-1,0.1c-0.2,0-0.4,0.1-0.6,0.2c0,0,0-0.1,0-0.1l0-0.1c0,0,0-0.1,0-0.1
			c0-0.1,0-0.1,0-0.2c0-0.1,0-0.2,0-0.2c0-0.1,0-0.2,0-0.2c0-0.1,0-0.1,0-0.2c0-0.1,0-0.1,0-0.2c0-0.1,0-0.1,0-0.1
			c0-0.1,0-0.1,0-0.2c0-0.1,0-0.1,0-0.2c-0.1-0.1-0.1-0.2-0.2-0.3c0,0,0-0.1-0.1-0.1l0,0l0,0c-0.1-0.1-0.2-0.2-0.3-0.3l-2.4-2.2
			c0,0,0,0,0,0c-0.3-0.3-0.7-0.5-1.2-0.5c-0.1,0-0.1,0-0.2,0c0,0,0,0,0,0c0,0,0,0,0,0c-0.1,0-0.3,0-0.5,0.1c-0.7,0.1-1.3,0.5-1.8,1
			c-0.4,0.5-0.7,0.9-0.8,1.5l-2.3-2c0,0,0,0,0,0c0,0,0,0,0,0l0,0l0,0c-0.1-0.1-0.3-0.2-0.5-0.2c0,0-0.1,0-0.1,0l-3.6,0.7
			c0,0,0-0.1,0-0.1l0,0c0-0.1,0-0.2,0-0.3c0-0.1,0-0.2,0-0.3l0,0l0-0.1c0-0.1,0-0.1,0-0.2l0-0.1c-0.1-0.3-0.1-0.5-0.2-0.7
			c-0.1-0.3-0.2-0.5-0.4-0.8c0,0,0-0.1-0.1-0.1c0,0,0,0,0-0.1c-0.2-0.2-0.4-0.5-0.6-0.7l-1-0.9l-1.4-1.3l0,0
			c-0.1-0.1-0.2-0.2-0.3-0.3c-0.6-0.5-1.4-0.8-2.3-0.9c-0.2,0-0.3,0-0.5-0.1c-0.1,0-0.1,0-0.2,0l0.4-3.7l-0.2-0.6l-2.4-2.2l0,0
			c-0.1-0.1-0.3-0.2-0.5-0.2c0,0-0.1,0-0.1,0l-3.8,0.7c-0.3,0.1-0.6,0.3-0.6,0.6l-0.8,7.6l-0.7-0.6l0,0l0,0l0,0l0,0
			c-0.1-0.1-0.3-0.2-0.5-0.2c0,0-0.1,0-0.1,0l-5.4,1c-0.2,0-0.4,0.1-0.5,0.1l1.1-2.3l-0.2-0.9l-2.4-2.2l0,0
			c-0.1-0.1-0.3-0.2-0.5-0.2c0,0-0.1,0-0.1,0l-2.4,0.4c-0.2,0-0.4,0.2-0.5,0.4l-3,6.2L86,26.4l-0.2-0.3l-2.4-2.2l0,0
			c-0.1-0.1-0.3-0.2-0.5-0.2c0,0-0.1,0-0.1,0l-5.4,1c-0.2,0-0.4,0.2-0.5,0.4c-0.1,0.2-0.1,0.4-0.1,0.6l0.3,0.8l-1.3-1.1l0,0
			c-0.1-0.1-0.3-0.2-0.5-0.2c0,0-0.1,0-0.1,0l-5.4,1c-0.2,0-0.4,0.2-0.5,0.4c-0.1,0.2-0.1,0.4-0.1,0.6l6,16.8c0,0.1,0.1,0.2,0.2,0.3
			l0,0l2,1.8c-0.1,0-0.1,0-0.2,0c0,0-0.1,0-0.1,0l-5.4,1c-0.5,0.1-0.9,0.2-1.2,0.4l1.5-2.4L71.8,44l-2.4-2.2h0
			c-0.1-0.1-0.3-0.2-0.5-0.2c0,0-0.1,0-0.1,0l-15.3,2.8c-0.3,0.1-0.6,0.3-0.6,0.7l-0.3,2.5c0,0.2,0.1,0.5,0.2,0.6c0,0,0,0,0,0v0
			l2.4,2.2l0.6,0.2l2.4-0.4l-7.6,12.3c-0.2,0.3-0.1,0.6,0,0.8c0,0,0.1,0.1,0.1,0.1l0,0l0,0v0l2.4,2.2l0.6,0.2l15.2-2.8l0.6-0.7
			l0.1-1l0.6,0.5c0.1,0.1,0.2,0.1,0.3,0.2c0.3,0.2,0.7,0.3,1.1,0.3c0.1,0,0.2,0,0.3,0H72c0.3,0,0.7,0,1-0.1l3.8-0.7l-0.1,1.4
			c0,0.2,0.1,0.5,0.2,0.6c0,0,0,0,0,0v0l2.4,2.2l0.6,0.2l3.8-0.7l0.6-0.7l0.5-4.5c1.2-0.2,2.2-0.5,3-0.7c0.8-0.3,1.5-0.6,2.2-1.1
			c0.2-0.1,0.4-0.3,0.6-0.5c0,0,0.1-0.1,0.1-0.1l0,0l0,0l-0.3,2.9c0,0.2,0.1,0.5,0.2,0.6c0,0,0,0,0,0l0,0l2.4,2.2l0.6,0.2l3.8-0.7
			l0.6-0.7l0.5-4.5c1.2-0.2,2.2-0.5,3-0.7c0.8-0.3,1.6-0.7,2.2-1.1c0.2-0.1,0.4-0.3,0.6-0.5c0,0,0.1-0.1,0.1-0.1l0.1-0.1l0.1-0.1
			c0.1-0.1,0.1-0.1,0.2-0.2c0,0,0.1-0.1,0.1-0.1l0,0c0.1-0.1,0.1-0.1,0.2-0.2c0.1-0.1,0.2-0.3,0.3-0.4l0,0c0.1-0.1,0.1-0.1,0.1-0.2
			c0-0.1,0.1-0.1,0.1-0.1c0-0.1,0.1-0.1,0.1-0.2l1.7,1.5c0.1,0.1,0.2,0.1,0.3,0.2c0.3,0.2,0.7,0.3,1.1,0.3c0.1,0,0.2,0,0.3,0h0.1
			c0.3,0,0.7,0,1-0.1l5.7-1l0.6-0.7l0.2-1.7l-0.1-0.2l0.5,0.5l0.8,0.7c0.3,0.3,0.8,0.5,1.4,0.5c0.1,0,0.2,0,0.3,0h0.1
			c0.3,0,0.7,0,1.1-0.1l3.5-0.6l0.3-0.3l0.6,0.2l3.8-0.7l0.6-0.6l0.1-0.6l0.9,0.9l0.6,0.2l1.9-0.3l0.6-0.7l0.4-4l0.3,0.4
			c0.2,0.4,0.5,0.7,0.7,0.9l0,0l0.9,0.8l1.5,1.4c0.1,0.1,0.2,0.1,0.2,0.2c0.2,0.2,0.5,0.2,0.8,0.3c0.1,0,0.1,0,0.2,0c0,0,0,0,0.1,0
			c0.2,0,0.3,0,0.5-0.1c0.2,0,0.4-0.1,0.7-0.2c0,0,0.1,0,0.2-0.1c0.1-0.1,0.3-0.2,0.4-0.3c0,0,0.1-0.1,0.1-0.1c0,0,0.1-0.1,0.1-0.1
			c0,0,0.1-0.1,0.1-0.1c0,0,0.1-0.1,0.1-0.1c0.1-0.1,0.1-0.2,0.2-0.3l0-0.1c0.1-0.2,0.1-0.4,0.2-0.5c0-0.1,0-0.1,0-0.2l0-0.1
			c0-0.1,0.1-0.2,0.1-0.3l0,0c0-0.1,0-0.1,0-0.2c0-0.2,0.1-0.4,0.1-0.7l1-9.4L142.6,37z"/>
		<g>
			<g>
				<polygon fill="#FFFFFF" points="93,22.7 90.5,23.1 85.8,32.9 82.9,24.5 77.5,25.5 79.6,31.5 78.2,34.3 75.3,25.9 69.9,26.9 
					75.9,43.6 80.5,34 83.5,42.3 				"/>
				<path fill="#FFFFFF" d="M100,38.5l0.2-1.7l-3.3,0.6c-0.3,0-0.5,0.1-0.6,0.1l-0.1,0l-0.1,0c-0.2,0-0.3-0.1-0.3-0.3
					c0-0.1-0.1-0.3,0-0.8l0.2-2.1l3.9-0.7L100,32l-3.9,0.7l0.2-1.9c0.1-0.5,0.2-0.9,0.4-1.1c0.2-0.3,0.6-0.4,1.1-0.5l3-0.5L101,27
					l-5.4,1c-1.8,0.3-2.9,1.4-3.1,3.2l-0.7,6.6c-0.1,0.8,0.1,1.4,0.5,1.6c0.2,0.1,0.5,0.2,0.8,0.2c0.1,0,0.1,0,0.2,0
					c0.3,0,0.6,0,1-0.1L100,38.5z"/>
				<path fill="#FFFFFF" d="M107.6,37.2c1.2-0.2,2.3-0.7,3.2-1.3c1-0.6,1.7-1.4,2.3-2.4c0.6-1,0.9-2.1,1.1-3.2
					c0.1-0.9,0-1.6-0.3-2.3c-0.3-0.7-0.7-1.2-1.2-1.6c-0.5-0.4-1.2-0.7-2-0.8c-0.1,0-0.3,0-0.4-0.1c-0.1,0-0.3,0-0.4,0
					c-0.5,0-1,0-1.6,0.1c-0.5,0.1-1,0.2-1.6,0.4l0.7-7.2l-3.8,0.7l-1.9,18.6L107.6,37.2z M107.9,27.4c0.1,0,0.1,0,0.2,0
					c0.5,0.1,1,0.3,1.3,0.7c0.5,0.6,0.7,1.6,0.5,3c-0.2,1.5-0.5,2.7-1.1,3.4c-0.6,0.7-1.4,1.2-2.4,1.4l-0.7,0.1l0.9-8.3
					c0.2-0.1,0.4-0.1,0.6-0.2C107.4,27.5,107.7,27.4,107.9,27.4z"/>
			</g>
			<g>
				<path fill="#FFFFFF" d="M58.5,59l10.4-16.7l-15.3,2.8l-0.3,2.5l8.3-1.5L51.4,62.7L66.5,60l0.3-2.4L58.5,59z"/>
				<path fill="#FFFFFF" d="M73.1,57.1c-0.2,0-0.4,0.1-0.6,0.1l-0.1,0l-0.1,0c-0.2,0-0.3-0.1-0.3-0.3c-0.1-0.2-0.1-0.4,0-0.8
					l0.2-2.1l3.9-0.7l0.2-1.7l-3.9,0.7l0.2-1.9c0.1-0.5,0.2-0.9,0.4-1.1c0.2-0.3,0.6-0.4,1.1-0.5l3-0.5l0.2-1.7l-5.4,1
					c-1.9,0.3-2.9,1.4-3.1,3.2l-0.7,6.6c-0.1,0.8,0.1,1.4,0.5,1.6c0.2,0.1,0.5,0.2,0.8,0.2c0.1,0,0.1,0,0.2,0c0.3,0,0.6,0,1-0.1
					l5.7-1l0.2-1.7L73.1,57.1z"/>
				<path fill="#FFFFFF" d="M89.7,46.9c-0.6-0.8-1.4-1.3-2.4-1.4c-0.2,0-0.5-0.1-0.7-0.1c-0.2,0-0.4,0-0.6,0c-0.7,0-1.4,0-2.1,0.2
					l-4.8,0.9L77.4,63l3.8-0.7l0.5-5.1l0.5-0.1c1.2-0.2,2.2-0.4,2.9-0.7c0.8-0.3,1.4-0.6,2-1c0.9-0.6,1.6-1.4,2.1-2.3
					c0.6-0.9,0.9-1.9,1-2.8C90.5,48.8,90.3,47.6,89.7,46.9z M83.3,47c0.3,0,0.5-0.1,0.7-0.1c0.1,0,0.1,0,0.2,0c0.4,0,0.7,0.2,1,0.4
					c0.4,0.4,0.7,0.9,0.8,1.5c0.1,0.7,0.2,1.4,0.1,2.1c-0.1,1.3-0.5,2.3-1.2,3.1c-0.6,0.8-1.4,1.3-2.4,1.5c-0.2,0-0.4,0.1-0.5,0.1
					l0.9-8.4L83.3,47z"/>
				<path fill="#FFFFFF" d="M103.6,44.3c-0.6-0.8-1.3-1.3-2.4-1.5c-0.2,0-0.5-0.1-0.7-0.1c-0.2,0-0.4,0-0.6,0c-0.7,0-1.4,0-2.1,0.2
					l-4.8,0.9l-1.7,16.6l3.8-0.7l0.5-5.1l0.5-0.1c1.2-0.2,2.1-0.4,2.9-0.7c0.8-0.3,1.4-0.6,2-1c0.9-0.6,1.6-1.4,2.1-2.3
					c0.5-0.9,0.9-1.9,1-2.8C104.4,46.2,104.2,45.1,103.6,44.3z M97.2,44.5c0.2,0,0.5-0.1,0.7-0.1c0.1,0,0.1,0,0.2,0
					c0.4,0,0.7,0.2,1,0.4c0.4,0.4,0.7,0.9,0.8,1.5c0.1,0.6,0.2,1.3,0.1,2.1c-0.1,1.2-0.5,2.3-1.2,3.1c-0.6,0.8-1.4,1.3-2.4,1.5
					C96.2,53,96,53,95.9,53l0.9-8.5L97.2,44.5z"/>
				<path fill="#FFFFFF" d="M110.6,50.3c-0.3,0-0.5,0.1-0.6,0.1l-0.2,0c-0.2,0-0.3-0.1-0.3-0.3c0-0.1-0.1-0.3,0-0.8l0.2-2.1l3.9-0.7
					l0.2-1.7l-3.9,0.7l0.2-1.9c0.1-0.5,0.2-0.8,0.4-1.1c0.2-0.2,0.6-0.4,1.1-0.5l3-0.5l0.2-1.7l-5.4,1c-1.8,0.3-2.9,1.4-3.1,3.2
					l-0.7,6.6c-0.1,0.8,0.1,1.4,0.5,1.7c0.2,0.1,0.5,0.2,0.8,0.2c0.1,0,0.1,0,0.2,0c0.3,0,0.6,0,1-0.1l5.7-1l0.2-1.7L110.6,50.3z"/>
				<path fill="#FFFFFF" d="M121.1,48.4c-0.3,0.1-0.6,0.1-0.8,0.1c-0.1,0-0.1,0-0.1,0c0,0-0.1,0-0.1,0c-0.2,0-0.4-0.2-0.4-0.4
					c0-0.2-0.1-0.5,0-1l1.6-15.3l-3.8,0.7l-1.6,15.3c-0.1,1.1,0,1.8,0.4,2.4c0.2,0.3,0.6,0.5,1.1,0.5c0.1,0,0.1,0,0.2,0
					c0.3,0,0.7,0,1.1-0.1l3.5-0.6l0.2-1.7L121.1,48.4z"/>
				<path fill="#FFFFFF" d="M125,34.9c0.2,0.2,0.5,0.3,0.8,0.3l0.1,0c0.1,0,0.3,0,0.4,0c0.5-0.1,1-0.4,1.4-0.8
					c0.4-0.4,0.6-0.9,0.7-1.4c0.1-0.5-0.1-0.9-0.4-1.2c-0.2-0.2-0.5-0.3-0.8-0.3c0,0-0.1,0-0.1,0c-0.1,0-0.2,0-0.4,0
					c-0.5,0.1-1,0.4-1.4,0.8c-0.4,0.4-0.7,0.9-0.7,1.4C124.5,34.2,124.7,34.6,125,34.9z"/>
				<polygon fill="#FFFFFF" points="124.1,38.1 122.9,49.7 126.8,49 127.9,37.4 				"/>
				<path fill="#FFFFFF" d="M139.7,35.4l-1.9,0.3l-0.6,5.9l-3.2-4.6c-0.1-0.1-0.2-0.3-0.4-0.4c-0.1-0.1-0.3-0.2-0.6-0.2l-0.1,0
					c-0.2,0-0.6,0-0.9,0.1c-0.7,0.1-1.2,0.5-1.5,1.1c-0.3,0.6-0.5,1.3-0.6,2l-0.9,9l1.9-0.3l0.8-7.5l3.7,5.7
					c0.3,0.4,0.5,0.7,0.7,0.8c0.1,0.1,0.3,0.1,0.4,0.1c0,0,0.1,0,0.1,0c0.1,0,0.3,0,0.5,0c0.6-0.1,1-0.4,1.2-0.9
					c0.2-0.5,0.4-1.1,0.5-1.8L139.7,35.4z"/>
			</g>
		</g>
	</g>
</g>
</svg>
