<?xml version="1.0" encoding="utf-8"?>
<!-- Generator: Adobe Illustrator 18.1.1, SVG Export Plug-In . SVG Version: 6.00 Build 0)  -->
<svg version="1.1" id="Слой_1" xmlns="http://www.w3.org/2000/svg" xmlns:xlink="http://www.w3.org/1999/xlink" x="0px" y="0px"
	 viewBox="0 0 115 122" enable-background="new 0 0 115 122" xml:space="preserve">
<image overflow="visible" width="461" height="298" xlink:href="F3113936.png"  transform="matrix(0.24 0 0 0.1572 2.2725 73.7246)">
</image>
<path fill-rule="evenodd" clip-rule="evenodd" fill="#222E47" d="M58.5,1.5c20.4,0,37,16.6,37,37c0,20.4-35.9,64-37,64
	c-1.4,0-37-43.6-37-64C21.5,18.1,38.1,1.5,58.5,1.5z"/>
<g>
	<path fill-rule="evenodd" clip-rule="evenodd" fill="#FFFFFF" d="M88.3,34.4c-0.3,0.1-6.6,3.5-11.7,4.9c-1.8,0.5-3.8,0.9-5.9,1.1
		l0,0c0.1-0.6,0.1-1.2,0.1-1.9l0-0.5l-0.4-0.3c-3.2-1.9-7.4-3-11.8-3c-4.4,0-8.6,1.1-11.7,3.1l-0.4,0.3l0,0.5c0,0.6,0,1.2,0.1,1.8
		l0,0c-2.1-0.2-4.1-0.6-5.9-1.1c-5.1-1.4-11.5-4.8-11.7-4.9L26,32.9c0.2,0.5,1.9,5.4,6.7,8.1l0.1,0l0,0.3c0,0.1,0.1,1.8,1.5,3
		c0.7,0.7,1.8,1.3,3.1,1.9l0,0l1.2,1.6c0.1,0.1,1,1.3,2.2,1.7l0,0l0.6,0.6c0.1,0.1,1.5,1.6,4.4,2.4c0.8,0.2,1.9,0.7,2.1,0.8l0.6,0.3
		c0.1,0,1.3,0.6,3.3,0.6c0.1,0,0.1,0,0.2,0h0c1.8,2.4,3.9,4.3,6.2,5.6l0.4,0.2l0.4-0.2c2.3-1.3,4.4-3.2,6.2-5.6l0,0
		c0.1,0,0.1,0,0.2,0c2,0,3.2-0.6,3.3-0.6l0.6-0.3c0.4-0.2,1.3-0.6,2.1-0.8c3-0.8,4.4-2.4,4.4-2.4l0.6-0.6l0,0
		c1.3-0.5,2.1-1.6,2.2-1.7l1.2-1.6l0,0c1.3-0.6,2.3-1.2,3.1-1.9c1.3-1.2,1.5-2.8,1.5-3l0-0.3l0.1,0c4.7-2.8,6.5-7.7,6.7-8.1
		L88.3,34.4z"/>
	<g>
		<path fill-rule="evenodd" clip-rule="evenodd" fill="#222E47" d="M36.1,41.6c-6.3-3-7.8-6.3-7.8-6.3s6.6,3.5,12,5
			c3.6,1,7.1,1.3,8.8,1.4c4.7,0.2,4.3,1.9,2.3,2.2C49.8,44.1,42.9,44.9,36.1,41.6z"/>
		<path fill-rule="evenodd" clip-rule="evenodd" fill="#222E47" d="M52.4,46.9c-2.9,0.4-7.2,0.9-12.1-0.7c-5.6-1.8-6.1-3.6-6.1-3.6
			s4,1.5,8.7,2.3c3.9,0.6,8.1,0.5,8.8,0.5C55.1,45.3,54.5,46.7,52.4,46.9z"/>
		<path fill-rule="evenodd" clip-rule="evenodd" fill="#222E47" d="M53.6,48.8c-1.8,0.8-5.1,1.3-8.1,1c-4.6-0.4-6.1-2.6-6.1-2.6
			s3.4,0.8,7.3,1c3.5,0.2,6.1-0.4,6.7-0.5C55.5,47.2,55.8,47.8,53.6,48.8z"/>
		<path fill-rule="evenodd" clip-rule="evenodd" fill="#222E47" d="M54.7,50.4c-1.4,1.1-4.2,2.2-8.3,1.4c-1.2-0.2-2.1-0.8-2.1-0.8
			s2.6,0.1,5.3-0.3c2.5-0.3,4.3-1,4.7-1.2C55.6,48.9,56.1,49.3,54.7,50.4z"/>
		<path fill-rule="evenodd" clip-rule="evenodd" fill="#222E47" d="M56.1,51c-0.5,1-1.3,1.5-2.3,1.9C51.6,54,49,53,49,53
			s3,0,4.4-0.9c1.2-0.8,1.9-1.5,2.1-1.8C56.1,49.7,56.6,50,56.1,51z"/>
	</g>
	<g>
		<path fill-rule="evenodd" clip-rule="evenodd" fill="#222E47" d="M81,41.6c6.3-3,7.8-6.3,7.8-6.3s-6.6,3.5-12,5
			c-3.6,1-7.1,1.3-8.8,1.4c-4.7,0.2-4.3,1.9-2.3,2.2C67.3,44.1,74.2,44.9,81,41.6z"/>
		<path fill-rule="evenodd" clip-rule="evenodd" fill="#222E47" d="M64.7,46.9c2.9,0.4,7.2,0.9,12.1-0.7c5.6-1.8,6.1-3.6,6.1-3.6
			s-4,1.5-8.7,2.3c-3.9,0.6-8.1,0.5-8.8,0.5C61.9,45.3,62.5,46.7,64.7,46.9z"/>
		<path fill-rule="evenodd" clip-rule="evenodd" fill="#222E47" d="M63.5,48.8c1.8,0.8,5.1,1.3,8.1,1c4.6-0.4,6.1-2.6,6.1-2.6
			s-3.4,0.8-7.3,1c-3.5,0.2-6.1-0.4-6.7-0.5C61.6,47.2,61.2,47.8,63.5,48.8z"/>
		<path fill-rule="evenodd" clip-rule="evenodd" fill="#222E47" d="M62.4,50.4c1.4,1.1,4.2,2.2,8.3,1.4c1.2-0.2,2.1-0.8,2.1-0.8
			s-2.6,0.1-5.3-0.3c-2.5-0.3-4.3-1-4.7-1.2C61.5,48.9,61,49.3,62.4,50.4z"/>
		<path fill-rule="evenodd" clip-rule="evenodd" fill="#222E47" d="M61,51c0.5,1,1.3,1.5,2.3,1.9c2.2,1,4.9,0.1,4.9,0.1
			s-3,0-4.4-0.9c-1.2-0.8-1.9-1.5-2.1-1.8C61,49.7,60.5,50,61,51z"/>
	</g>
	<path fill-rule="evenodd" clip-rule="evenodd" fill="#222E47" d="M58.1,59c-4.3-2.4-7.9-7.3-9.9-13.3l0,0c-0.5-1.6-1-3.9-1-6.4
		l0-0.4l0.4-0.2c2.9-1.9,6.8-2.9,10.9-2.9c4,0,7.9,1,10.9,2.8l0.4,0.2l0,0.5c0,2.5-0.5,4.7-1,6.4l0,0c-2,6.2-5.6,11.1-9.9,13.4
		l-0.4,0.2L58.1,59z"/>
	<path fill-rule="evenodd" clip-rule="evenodd" fill="#CC2E72" d="M58.2,58.2c-4-2.2-7.3-6.7-9.2-12.4l0,0c-0.4-1.5-0.9-3.6-0.9-5.9
		l0-0.4l0.3-0.2c2.7-1.7,6.3-2.7,10.1-2.7c3.7,0,7.3,0.9,10.1,2.6l0.4,0.2l0,0.4c0,2.3-0.5,4.4-0.9,5.9l0,0
		c-1.9,5.7-5.2,10.3-9.2,12.5l-0.4,0.2L58.2,58.2z"/>
	<g>
		<path fill="#222E47" d="M76.4,45.4l-0.9-0.8c0,0,0,0,0,0l0,0l0,0l0,0c0,0-0.1-0.1-0.2-0.1c0,0,0,0,0,0l-0.7,0.1
			c-0.1,0-0.2,0.1-0.2,0.2l-0.1,1c0,0,0,0,0,0l-0.9-0.8l0,0c0,0,0,0-0.1-0.1C73.3,45,73.2,45,73,45c0,0,0,0,0,0l0,0c0,0,0,0,0,0
			c-0.1,0-0.2,0-0.4,0c-0.1,0-0.1,0-0.2,0.1c0,0,0,0,0,0l0,0c0,0,0,0,0-0.1c0,0,0,0,0-0.1c0,0,0-0.1,0-0.1c0,0,0-0.1,0-0.1
			c0,0,0,0,0-0.1c0,0,0-0.1,0-0.1c0,0,0,0,0-0.1c0,0,0,0,0-0.1c0,0,0,0,0-0.1c0,0,0-0.1-0.1-0.1c0,0,0,0,0,0l0,0l0,0
			c0,0-0.1-0.1-0.1-0.1l-0.9-0.8c0,0,0,0,0,0c-0.1-0.1-0.3-0.2-0.4-0.2c0,0,0,0-0.1,0c0,0,0,0,0,0c0,0,0,0,0,0c0,0-0.1,0-0.2,0
			c-0.2,0-0.5,0.2-0.7,0.4c-0.1,0.2-0.2,0.3-0.3,0.5l-0.8-0.7l0,0c0,0,0,0,0,0l0,0v0c0,0-0.1-0.1-0.2-0.1c0,0,0,0,0,0l-1.3,0.2
			c0,0,0,0,0,0v0c0,0,0-0.1,0-0.1c0,0,0-0.1,0-0.1l0,0l0,0c0,0,0,0,0-0.1l0,0c0-0.1,0-0.2-0.1-0.3c0-0.1-0.1-0.2-0.2-0.3
			c0,0,0,0,0,0c0,0,0,0,0,0c-0.1-0.1-0.1-0.2-0.2-0.2l-0.3-0.3l-0.5-0.5l0,0c0,0-0.1-0.1-0.1-0.1c-0.2-0.2-0.5-0.3-0.8-0.3
			c-0.1,0-0.1,0-0.2,0c0,0,0,0-0.1,0l0.1-1.3l-0.1-0.2l-0.9-0.8l0,0c-0.1,0-0.1-0.1-0.2-0.1c0,0,0,0,0,0l-1.4,0.3
			c-0.1,0-0.2,0.1-0.2,0.2l-0.3,2.7l-0.2-0.2l0,0l0,0l0,0l0,0c0,0-0.1-0.1-0.2-0.1c0,0,0,0,0,0l-1.9,0.4c-0.1,0-0.1,0-0.2,0l0.4-0.8
			l-0.1-0.3L58.7,40l0,0c0,0-0.1-0.1-0.2-0.1c0,0,0,0,0,0l-0.9,0.2c-0.1,0-0.2,0.1-0.2,0.1l-1.1,2.2L56,41.6l-0.1-0.1l-0.9-0.8l0,0
			c0,0-0.1-0.1-0.2-0.1c0,0,0,0,0,0L52.9,41c-0.1,0-0.1,0.1-0.2,0.1c0,0.1,0,0.1,0,0.2l0.1,0.3l-0.5-0.4l0,0c0,0-0.1-0.1-0.2-0.1
			c0,0,0,0,0,0l-2,0.4c-0.1,0-0.1,0.1-0.2,0.1c0,0.1,0,0.1,0,0.2l2.2,6.1c0,0,0,0.1,0.1,0.1l0,0l0.7,0.6c0,0,0,0-0.1,0c0,0,0,0,0,0
			L50.8,49c-0.2,0-0.3,0.1-0.4,0.1l0.5-0.9l0-0.3L50,47.2h0c0,0-0.1-0.1-0.2-0.1c0,0,0,0,0,0l-5.5,1c-0.1,0-0.2,0.1-0.2,0.2L44,49.2
			c0,0.1,0,0.2,0.1,0.2c0,0,0,0,0,0l0,0l0.9,0.8l0.2,0.1l0.9-0.2l-2.8,4.4c-0.1,0.1-0.1,0.2,0,0.3c0,0,0,0,0,0l0,0l0,0l0,0l0.9,0.8
			l0.2,0.1l5.5-1l0.2-0.2l0-0.4l0.2,0.2c0,0,0.1,0.1,0.1,0.1c0.1,0.1,0.2,0.1,0.4,0.1c0,0,0.1,0,0.1,0h0c0.1,0,0.2,0,0.4,0l1.4-0.2
			l-0.1,0.5c0,0.1,0,0.2,0.1,0.2c0,0,0,0,0,0v0l0.9,0.8l0.2,0.1l1.4-0.3l0.2-0.2l0.2-1.6c0.4-0.1,0.8-0.2,1.1-0.3
			c0.3-0.1,0.6-0.2,0.8-0.4c0.1-0.1,0.1-0.1,0.2-0.2c0,0,0,0,0,0l0,0l0,0l-0.1,1.1c0,0.1,0,0.2,0.1,0.2c0,0,0,0,0,0v0l0.9,0.8
			l0.2,0.1l1.4-0.3l0.2-0.2l0.2-1.6c0.4-0.1,0.8-0.2,1.1-0.3c0.3-0.1,0.6-0.2,0.8-0.4c0.1-0.1,0.1-0.1,0.2-0.2c0,0,0,0,0,0l0,0l0,0
			c0,0,0,0,0.1-0.1c0,0,0,0,0,0l0,0c0,0,0-0.1,0.1-0.1c0,0,0.1-0.1,0.1-0.1l0,0c0,0,0,0,0.1-0.1c0,0,0,0,0,0c0,0,0,0,0-0.1l0.6,0.5
			c0,0,0.1,0.1,0.1,0.1c0.1,0.1,0.2,0.1,0.4,0.1c0,0,0.1,0,0.1,0h0c0.1,0,0.2,0,0.4,0l2.1-0.4l0.2-0.2l0.1-0.6l0-0.1l0.2,0.2
			l0.3,0.3c0.1,0.1,0.3,0.2,0.5,0.2c0,0,0.1,0,0.1,0h0c0.1,0,0.3,0,0.4,0l1.3-0.2L70,51l0.2,0.1l1.4-0.3l0.2-0.2l0-0.2l0.3,0.3
			l0.2,0.1l0.7-0.1l0.2-0.2l0.2-1.5l0.1,0.1c0.1,0.1,0.2,0.2,0.2,0.3l0,0l0.3,0.3l0.6,0.5c0,0,0.1,0,0.1,0.1
			c0.1,0.1,0.2,0.1,0.3,0.1c0,0,0,0,0.1,0c0,0,0,0,0,0c0.1,0,0.1,0,0.2,0c0.1,0,0.2,0,0.2-0.1c0,0,0,0,0.1,0c0.1,0,0.1-0.1,0.1-0.1
			c0,0,0,0,0,0c0,0,0,0,0,0c0,0,0,0,0,0c0,0,0,0,0,0c0,0,0-0.1,0.1-0.1l0,0c0-0.1,0.1-0.1,0.1-0.2c0,0,0-0.1,0-0.1l0,0
			c0,0,0-0.1,0-0.1l0,0c0,0,0,0,0-0.1c0-0.1,0-0.2,0-0.2l0.4-3.4L76.4,45.4z"/>
		<g>
			<g>
				<polygon fill="#FFFFFF" points="58.5,40.2 57.6,40.4 55.9,44 54.9,40.9 52.9,41.3 53.7,43.4 53.2,44.4 52.1,41.4 50.2,41.8 
					52.4,47.8 54,44.3 55.1,47.3 				"/>
				<path fill="#FFFFFF" d="M61.1,46l0.1-0.6l-1.2,0.2c-0.1,0-0.2,0-0.2,0l0,0l0,0c-0.1,0-0.1,0-0.1-0.1c0,0,0-0.1,0-0.3l0.1-0.8
					l1.4-0.3l0.1-0.6l-1.4,0.3l0.1-0.7c0-0.2,0.1-0.3,0.1-0.4c0.1-0.1,0.2-0.2,0.4-0.2l1.1-0.2l0.1-0.6l-1.9,0.4
					c-0.7,0.1-1,0.5-1.1,1.1l-0.2,2.4c0,0.3,0,0.5,0.2,0.6c0.1,0,0.2,0.1,0.3,0.1c0,0,0,0,0.1,0c0.1,0,0.2,0,0.3,0L61.1,46z"/>
				<path fill="#FFFFFF" d="M63.8,45.5c0.4-0.1,0.8-0.2,1.2-0.5c0.3-0.2,0.6-0.5,0.8-0.9c0.2-0.4,0.3-0.7,0.4-1.2
					c0-0.3,0-0.6-0.1-0.8c-0.1-0.2-0.2-0.4-0.4-0.6c-0.2-0.1-0.4-0.2-0.7-0.3c-0.1,0-0.1,0-0.2,0c-0.1,0-0.1,0-0.2,0
					c-0.2,0-0.4,0-0.6,0c-0.2,0-0.4,0.1-0.6,0.1l0.3-2.6l-1.4,0.3l-0.7,6.7L63.8,45.5z M63.9,42C64,42,64,42,63.9,42
					c0.3,0,0.4,0.1,0.5,0.2c0.2,0.2,0.2,0.6,0.2,1.1c-0.1,0.6-0.2,1-0.4,1.2c-0.2,0.3-0.5,0.4-0.9,0.5l-0.2,0l0.3-3
					c0.1,0,0.1,0,0.2-0.1C63.8,42,63.8,42,63.9,42z"/>
			</g>
			<g>
				<path fill="#FFFFFF" d="M46.1,53.4l3.7-6l-5.5,1l-0.1,0.9l3-0.5l-3.7,6l5.5-1l0.1-0.9L46.1,53.4z"/>
				<path fill="#FFFFFF" d="M51.4,52.7c-0.1,0-0.2,0-0.2,0l0,0l0,0c-0.1,0-0.1,0-0.1-0.1c0-0.1,0-0.2,0-0.3l0.1-0.8l1.4-0.3l0.1-0.6
					L51.1,51l0.1-0.7c0-0.2,0.1-0.3,0.1-0.4c0.1-0.1,0.2-0.2,0.4-0.2l1.1-0.2l0.1-0.6l-1.9,0.4c-0.7,0.1-1,0.5-1.1,1.1l-0.2,2.4
					c0,0.3,0,0.5,0.2,0.6c0.1,0,0.2,0.1,0.3,0.1c0,0,0,0,0.1,0c0.1,0,0.2,0,0.3,0l2-0.4l0.1-0.6L51.4,52.7z"/>
				<path fill="#FFFFFF" d="M57.4,49c-0.2-0.3-0.5-0.5-0.9-0.5c-0.1,0-0.2,0-0.3,0c-0.1,0-0.1,0-0.2,0c-0.2,0-0.5,0-0.8,0.1
					l-1.7,0.3l-0.6,6l1.4-0.3l0.2-1.8l0.2,0c0.4-0.1,0.8-0.2,1-0.3c0.3-0.1,0.5-0.2,0.7-0.4c0.3-0.2,0.6-0.5,0.8-0.8
					c0.2-0.3,0.3-0.7,0.4-1C57.6,49.7,57.6,49.3,57.4,49z M55,49c0.1,0,0.2,0,0.2,0c0,0,0,0,0.1,0c0.1,0,0.3,0.1,0.3,0.1
					c0.2,0.1,0.3,0.3,0.3,0.5c0,0.2,0.1,0.5,0,0.8c0,0.5-0.2,0.8-0.4,1.1c-0.2,0.3-0.5,0.5-0.9,0.5c-0.1,0-0.1,0-0.2,0l0.3-3.1
					L55,49z"/>
				<path fill="#FFFFFF" d="M62.4,48.1c-0.2-0.3-0.5-0.5-0.9-0.5c-0.1,0-0.2,0-0.3,0c-0.1,0-0.1,0-0.2,0c-0.2,0-0.5,0-0.8,0.1
					l-1.7,0.3l-0.6,6l1.4-0.3l0.2-1.8l0.2,0c0.4-0.1,0.8-0.2,1-0.3c0.3-0.1,0.5-0.2,0.7-0.4c0.3-0.2,0.6-0.5,0.8-0.8
					c0.2-0.3,0.3-0.7,0.3-1C62.7,48.7,62.6,48.3,62.4,48.1z M60.1,48.1c0.1,0,0.2,0,0.2,0c0,0,0,0,0.1,0c0.1,0,0.3,0.1,0.3,0.1
					c0.2,0.1,0.3,0.3,0.3,0.5c0,0.2,0.1,0.5,0,0.8c0,0.4-0.2,0.8-0.4,1.1c-0.2,0.3-0.5,0.5-0.9,0.5c-0.1,0-0.1,0-0.2,0l0.3-3.1
					L60.1,48.1z"/>
				<path fill="#FFFFFF" d="M64.9,50.2c-0.1,0-0.2,0-0.2,0l-0.1,0c-0.1,0-0.1,0-0.1-0.1c0,0,0-0.1,0-0.3l0.1-0.8l1.4-0.3l0.1-0.6
					l-1.4,0.3l0.1-0.7c0-0.2,0.1-0.3,0.2-0.4c0.1-0.1,0.2-0.2,0.4-0.2l1.1-0.2l0.1-0.6l-1.9,0.4c-0.7,0.1-1,0.5-1.1,1.1l-0.2,2.4
					c0,0.3,0,0.5,0.2,0.6c0.1,0,0.2,0.1,0.3,0.1c0,0,0.1,0,0.1,0c0.1,0,0.2,0,0.3,0l2.1-0.4L66,50L64.9,50.2z"/>
				<path fill="#FFFFFF" d="M68.7,49.5c-0.1,0-0.2,0-0.3,0c0,0,0,0,0,0c0,0,0,0,0,0c-0.1,0-0.1-0.1-0.1-0.1c0-0.1,0-0.2,0-0.4
					l0.6-5.5l-1.4,0.3l-0.6,5.5c0,0.4,0,0.7,0.1,0.8c0.1,0.1,0.2,0.2,0.4,0.2c0,0,0.1,0,0.1,0c0.1,0,0.2,0,0.4,0l1.3-0.2l0.1-0.6
					L68.7,49.5z"/>
				<path fill="#FFFFFF" d="M70.1,44.7c0.1,0.1,0.2,0.1,0.3,0.1l0,0c0,0,0.1,0,0.1,0c0.2,0,0.4-0.1,0.5-0.3c0.1-0.2,0.2-0.3,0.3-0.5
					c0-0.2,0-0.3-0.2-0.4c-0.1-0.1-0.2-0.1-0.3-0.1c0,0,0,0,0,0c0,0-0.1,0-0.1,0c-0.2,0-0.4,0.1-0.5,0.3C70,43.9,70,44,69.9,44.2
					C69.9,44.4,70,44.6,70.1,44.7z"/>
				<polygon fill="#FFFFFF" points="69.8,45.8 69.3,50 70.7,49.7 71.2,45.6 				"/>
				<path fill="#FFFFFF" d="M75.4,44.8L74.7,45l-0.2,2.1l-1.1-1.7c0,0-0.1-0.1-0.1-0.1c-0.1,0-0.1-0.1-0.2-0.1l0,0
					c-0.1,0-0.2,0-0.3,0c-0.2,0-0.4,0.2-0.5,0.4c-0.1,0.2-0.2,0.5-0.2,0.7l-0.3,3.3l0.7-0.1l0.3-2.7l1.3,2c0.1,0.2,0.2,0.3,0.3,0.3
					c0,0,0.1,0,0.2,0.1c0,0,0,0,0,0c0,0,0.1,0,0.2,0c0.2,0,0.4-0.2,0.4-0.3c0.1-0.2,0.1-0.4,0.2-0.6L75.4,44.8z"/>
			</g>
		</g>
	</g>
</g>
</svg>
